<svg width="30" height="34" viewBox="0 0 30 34" fill="none" xmlns="http://www.w3.org/2000/svg">
<path d="M2.125 30.8124C2.125 31.6578 2.46082 32.4686 3.05859 33.0663C3.65636 33.6641 4.46711 33.9999 5.31249 33.9999H24.4374C25.2828 33.9999 26.0936 33.6641 26.6913 33.0663C27.2891 32.4686 27.6249 31.6578 27.6249 30.8124V8.49999H2.125V30.8124ZM20.1875 13.8125C20.1875 13.5307 20.2994 13.2604 20.4987 13.0612C20.6979 12.8619 20.9682 12.75 21.25 12.75C21.5317 12.75 21.802 12.8619 22.0013 13.0612C22.2005 13.2604 22.3125 13.5307 22.3125 13.8125V28.6875C22.3125 28.9692 22.2005 29.2395 22.0013 29.4388C21.802 29.638 21.5317 29.7499 21.25 29.7499C20.9682 29.7499 20.6979 29.638 20.4987 29.4388C20.2994 29.2395 20.1875 28.9692 20.1875 28.6875V13.8125ZM13.8125 13.8125C13.8125 13.5307 13.9244 13.2604 14.1237 13.0612C14.3229 12.8619 14.5932 12.75 14.875 12.75C15.1568 12.75 15.427 12.8619 15.6263 13.0612C15.8255 13.2604 15.9375 13.5307 15.9375 13.8125V28.6875C15.9375 28.9692 15.8255 29.2395 15.6263 29.4388C15.427 29.638 15.1568 29.7499 14.875 29.7499C14.5932 29.7499 14.3229 29.638 14.1237 29.4388C13.9244 29.2395 13.8125 28.9692 13.8125 28.6875V13.8125ZM7.43748 13.8125C7.43748 13.5307 7.54943 13.2604 7.74868 13.0612C7.94794 12.8619 8.21819 12.75 8.49998 12.75C8.78177 12.75 9.05202 12.8619 9.25128 13.0612C9.45054 13.2604 9.56248 13.5307 9.56248 13.8125V28.6875C9.56248 28.9692 9.45054 29.2395 9.25128 29.4388C9.05202 29.638 8.78177 29.7499 8.49998 29.7499C8.21819 29.7499 7.94794 29.638 7.74868 29.4388C7.54943 29.2395 7.43748 28.9692 7.43748 28.6875V13.8125ZM28.6874 2.12501H20.7187L20.0945 0.883213C19.9623 0.617731 19.7586 0.394413 19.5063 0.238382C19.2541 0.0823514 18.9633 -0.000201075 18.6668 1.16428e-05H11.0765C10.7806 -0.00112593 10.4904 0.0811187 10.239 0.237323C9.98769 0.393527 9.78544 0.617372 9.65545 0.883213L9.03123 2.12501H1.0625C0.780706 2.12501 0.510455 2.23695 0.311198 2.43621C0.111941 2.63546 0 2.90571 0 3.1875L0 5.3125C0 5.59429 0.111941 5.86454 0.311198 6.0638C0.510455 6.26306 0.780706 6.375 1.0625 6.375H28.6874C28.9692 6.375 29.2395 6.26306 29.4387 6.0638C29.638 5.86454 29.7499 5.59429 29.7499 5.3125V3.1875C29.7499 2.90571 29.638 2.63546 29.4387 2.43621C29.2395 2.23695 28.9692 2.12501 28.6874 2.12501Z" fill="#313131"/>
</svg>
